HIERARCHY
ROOT hip
{
  OFFSET 0 0 0
  CHANNELS 6 Xposition Yposition Zposition Zrotation Yrotation Xrotation
  JOINT abdomen
  {
    OFFSET 0 20.6881 -0.73152
    CHANNELS 3 Zrotation Xrotation Yrotation
    JOINT chest
    {
      OFFSET 0 11.7043 -0.48768
      CHANNELS 3 Zrotation Xrotation Yrotation
      JOINT neck
      {
        OFFSET 0 22.1894 -2.19456
        CHANNELS 3 Zrotation Xrotation Yrotation
        JOINT head
        {
          OFFSET -0.24384 7.07133 1.2192
          CHANNELS 3 Zrotation Xrotation Yrotation
          JOINT leftEye
          {
            OFFSET 4.14528 8.04674 8.04672
            CHANNELS 3 Zrotation Xrotation Yrotation
            End Site
            {
              OFFSET 1 0 0
            }
          }
          JOINT rightEye
          {
            OFFSET -3.6576 8.04674 8.04672
            CHANNELS 3 Zrotation Xrotation Yrotation
            End Site
            {
              OFFSET 1 0 0
            }
          }
        }
      }
      JOINT rCollar
      {
        OFFSET -2.68224 19.2634 -4.8768
        CHANNELS 3 Zrotation Xrotation Yrotation
        JOINT rShldr
        {
          OFFSET -8.77824 -1.95073 1.46304
          CHANNELS 3 Zrotation Xrotation Yrotation
          JOINT rForeArm
          {
            OFFSET -28.1742 -1.7115 0.48768
            CHANNELS 3 Zrotation Xrotation Yrotation
            JOINT rHand
            {
              OFFSET -22.5879 0.773209 7.07136
              CHANNELS 3 Zrotation Xrotation Yrotation
              JOINT rThumb1
              {
                OFFSET -1.2192 -0.487915 3.41376
                CHANNELS 3 Zrotation Xrotation Yrotation
                JOINT rThumb2
                {
                  OFFSET -3.37035 -0.52449 3.41376
                  CHANNELS 3 Zrotation Xrotation Yrotation
                  End Site
                  {
                    OFFSET -1.78271 -1.18214 1.43049
                  }
                }
              }
              JOINT rIndex1
              {
                OFFSET -7.75947 0.938293 5.60832
                CHANNELS 3 Zrotation Xrotation Yrotation
                JOINT rIndex2
                {
                  OFFSET -2.54057 -0.884171 1.56538
                  CHANNELS 3 Zrotation Xrotation Yrotation
                  End Site
                  {
                    OFFSET -1.62519 -0.234802 1.16502
                  }
                }
              }
              JOINT rMid1
              {
                OFFSET -8.24714 1.18213 3.41376
                CHANNELS 3 Zrotation Xrotation Yrotation
                JOINT rMid2
                {
                  OFFSET -3.10165 -0.590103 1.0647
                  CHANNELS 3 Zrotation Xrotation Yrotation
                  End Site
                  {
                    OFFSET -2.48547 -0.328903 0.83742
                  }
                }
              }
              JOINT rRing1
              {
                OFFSET -8.82822 0.546677 1.51678
                CHANNELS 3 Zrotation Xrotation Yrotation
                JOINT rRing2
                {
                  OFFSET -2.60934 -0.819778 -0.0198488
                  CHANNELS 3 Zrotation Xrotation Yrotation
                  End Site
                  {
                    OFFSET -2.33842 -0.294052 0.168128
                  }
                }
              }
              JOINT rPinky1
              {
                OFFSET -8.27202 -0.0477905 -0.4584
                CHANNELS 3 Zrotation Xrotation Yrotation
                JOINT rPinky2
                {
                  OFFSET -1.82734 -0.647385 -0.700984
                  CHANNELS 3 Zrotation Xrotation Yrotation
                  End Site
                  {
                    OFFSET -1.69225 -0.51767 -0.607171
                  }
                }
              }
            }
          }
        }
      }
      JOINT lCollar
      {
        OFFSET 2.68224 19.2634 -4.8768
        CHANNELS 3 Zrotation Xrotation Yrotation
        JOINT lShldr
        {
          OFFSET 8.77824 -1.95073 1.46304
          CHANNELS 3 Zrotation Xrotation Yrotation
          JOINT lForeArm
          {
            OFFSET 28.1742 -1.7115 0.48768
            CHANNELS 3 Zrotation Xrotation Yrotation
            JOINT lHand
            {
              OFFSET 22.5879 0.773209 7.07136
              CHANNELS 3 Zrotation Xrotation Yrotation
              JOINT lThumb1
              {
                OFFSET 1.2192 -0.487915 3.41376
                CHANNELS 3 Zrotation Xrotation Yrotation
                JOINT lThumb2
                {
                  OFFSET 3.37035 -0.52449 3.41376
                  CHANNELS 3 Zrotation Xrotation Yrotation
                  End Site
                  {
                    OFFSET 1.78271 -1.18214 1.43049
                  }
                }
              }
              JOINT lIndex1
              {
                OFFSET 7.75947 0.938293 5.60832
                CHANNELS 3 Zrotation Xrotation Yrotation
                JOINT lIndex2
                {
                  OFFSET 2.54057 -0.884171 1.56538
                  CHANNELS 3 Zrotation Xrotation Yrotation
                  End Site
                  {
                    OFFSET 1.62519 -0.234802 1.16502
                  }
                }
              }
              JOINT lMid1
              {
                OFFSET 8.24714 1.18213 3.41376
                CHANNELS 3 Zrotation Xrotation Yrotation
                JOINT lMid2
                {
                  OFFSET 3.10165 -0.590103 1.0647
                  CHANNELS 3 Zrotation Xrotation Yrotation
                  End Site
                  {
                    OFFSET 2.48547 -0.328903 0.83742
                  }
                }
              }
              JOINT lRing1
              {
                OFFSET 8.82822 0.546677 1.51678
                CHANNELS 3 Zrotation Xrotation Yrotation
                JOINT lRing2
                {
                  OFFSET 2.60934 -0.819778 -0.0198488
                  CHANNELS 3 Zrotation Xrotation Yrotation
                  End Site
                  {
                    OFFSET 2.33842 -0.294052 0.168128
                  }
                }
              }
              JOINT lPinky1
              {
                OFFSET 8.27202 -0.0477905 -0.4584
                CHANNELS 3 Zrotation Xrotation Yrotation
                JOINT lPinky2
                {
                  OFFSET 1.82734 -0.647385 -0.700984
                  CHANNELS 3 Zrotation Xrotation Yrotation
                  End Site
                  {
                    OFFSET 1.69225 -0.51767 -0.607171
                  }
                }
              }
            }
          }
        }
      }
    }
  }
  JOINT rButtock
  {
    OFFSET -8.77824 4.35084 1.2192
    CHANNELS 3 Zrotation Xrotation Yrotation
    JOINT rThigh
    {
      OFFSET 0 -1.70687 -2.19456
      CHANNELS 3 Zrotation Xrotation Yrotation
      JOINT rShin
      {
        OFFSET 0 -36.8199 0.73152
        CHANNELS 3 Zrotation Xrotation Yrotation
        JOINT rFoot
        {
          OFFSET 0.73152 -45.1104 -5.12064
          CHANNELS 3 Zrotation Xrotation Yrotation
          End Site
          {
            OFFSET -1.1221 -3.69964 12.103
          }
        }
      }
    }
  }
  JOINT lButtock
  {
    OFFSET 8.77824 4.35084 1.2192
    CHANNELS 3 Zrotation Xrotation Yrotation
    JOINT lThigh
    {
      OFFSET 0 -1.70687 -2.19456
      CHANNELS 3 Zrotation Xrotation Yrotation
      JOINT lShin
      {
        OFFSET 0 -36.8199 0.73152
        CHANNELS 3 Zrotation Xrotation Yrotation
        JOINT lFoot
        {
          OFFSET -0.73152 -45.1104 -5.12064
          CHANNELS 3 Zrotation Xrotation Yrotation
          End Site
          {
            OFFSET 1.1221 -3.69964 12.103
          }
        }
      }
    }
  }
}
MOTION
Frames:	4
Frame Time:	0.00833333
67.4238 85.5886 28.6623 0.0 0.0 0.0 2.72259 0.000518362 0.0736203 0.750835 0.0131642 0.129929 -1.45492e-14 -7.95139e-16 1.49088e-16 -4.43818e-14 3.18055e-15 5.43552e-16 -0.0 0.0 0.0 -0.0 0.0 0.0 -7.25671e-15 8.58035e-17 2.98177e-16 -1.54357e-13 1.45982e-15 1.39149e-15 -2.70059e-12 8.7346e-13 7.31528e-14 -3.095e-11 -4.63541e-13 2.57625e-13 -7.30083e-11 8.92507e-13 7.50611e-13 -1.26091e-10 1.53939e-12 1.308e-12 -7.30057e-11 8.90158e-13 7.41069e-13 7.73091 5.47488 0.417314 -7.30085e-11 8.92444e-13 7.50611e-13 2.90554 0.965183 0.102902 -7.29995e-11 8.9304e-13 7.53791e-13 10.2786 0.731801 0.0259123 -7.30152e-11 8.94531e-13 7.63333e-13 2.22167 -0.733487 -0.20892 -7.35442e-15 8.23093e-17 -9.93923e-17 -1.58221e-13 1.76421e-15 0.0 -2.70442e-12 -7.41864e-13 4.45278e-14 -3.09365e-11 1.15516e-12 3.14875e-13 -7.29852e-11 8.96083e-13 7.69694e-13 -1.26041e-10 1.54575e-12 1.32788e-12 -7.29882e-11 8.96519e-13 7.79236e-13 -7.73091 5.47488 -0.417314 -7.29845e-11 8.95823e-13 7.66514e-13 -2.90554 0.965183 -0.102902 -7.29936e-11 8.96618e-13 7.67309e-13 -10.2786 0.731801 -0.0259123 -7.29778e-11 8.99302e-13 7.60153e-13 -2.22167 -0.733487 0.20892 -2.03217e-16 0.0 -3.88251e-19 2.53293 -8.65199 -0.274468 0.00739542 10.0933 0.18952 -0.516838 -1.45223 0.0286106 2.03217e-16 0.0 3.88251e-19 1.60784 -1.93183 -0.0095322 0.00859977 -2.07865 0.0706377 0.458893 3.99948 -0.13248
65.3911 84.7117 23.8759 78.6836 -86.4101 -67.9059 0.206445 -2.62717 0.451022 2.15032 0.949238 0.231953 -4.59055 1.85977 0.927431 9.19397 -3.10705 3.43617 -0.0 0.0 0.0 -0.0 0.0 0.0 -2.81726e-14 -5.10642e-13 6.054e-15 25.0132 3.82972 -3.51534 -24.1424 -21.994 14.6493 0.00832909 -2.02524 -0.283988 -2.41902e-10 -8.62153e-10 1.93208e-09 -4.28093e-10 -1.48888e-09 3.33805e-09 -2.41899e-10 -8.62153e-10 1.93207e-09 7.73091 5.47488 0.417314 -2.41903e-10 -8.62153e-10 1.93208e-09 2.90554 0.965183 0.102902 -2.41895e-10 -8.62152e-10 1.93208e-09 10.2786 0.731801 0.0259123 -2.41908e-10 -8.62151e-10 1.93209e-09 2.22167 -0.733487 -0.20892 -2.82814e-14 -5.10645e-13 5.6211e-15 -23.1065 12.8345 1.0372 22.5892 -20.4589 -14.9525 -0.00314528 1.24445 -0.174747 1.07793e-09 4.74936e-10 -1.96927e-09 1.85629e-09 8.217e-10 -3.40829e-09 1.07793e-09 4.74936e-10 -1.96926e-09 -7.73091 5.47488 -0.417314 1.07793e-09 4.74936e-10 -1.96927e-09 -2.90554 0.965183 -0.102902 1.07793e-09 4.74936e-10 -1.96927e-09 -10.2786 0.731801 -0.0259123 1.07794e-09 4.74939e-10 -1.96928e-09 -2.22167 -0.733487 0.20892 -2.03217e-16 0.0 -3.88251e-19 -1.04349 -9.91953 1.81958 0.000794872 11.3068 0.202786 -0.699943 -5.31274 -2.37425 2.03217e-16 0.0 3.88251e-19 3.20753 -3.15009 -2.98819 0.000194683 -0.736726 0.00159766 0.947782 1.02044 5.50441
65.3932 84.7119 23.9047 79.1451 -86.2857 -68.3601 -2.41727 -5.40348 0.847785 3.62661 1.93989 0.338441 -9.51945 3.82165 1.91477 19.3401 -6.35151 7.1133 -0.0 0.0 0.0 -0.0 0.0 0.0 -4.96417e-14 -1.02442e-12 1.06194e-14 51.9669 7.83423 -7.2833 -34.8301 -39.9628 37.6237 -0.00476479 -4.17184 -0.586199 -4.17561e-10 -1.77714e-09 4.02039e-09 -7.42601e-10 -3.06898e-09 6.94603e-09 -4.17557e-10 -1.77714e-09 4.02038e-09 7.73091 5.47488 0.417314 -4.17562e-10 -1.77714e-09 4.02039e-09 2.90554 0.965183 0.102902 -4.17555e-10 -1.77714e-09 4.02039e-09 10.2786 0.731801 0.0259123 -4.17565e-10 -1.77714e-09 4.0204e-09 2.22167 -0.733487 -0.20892 -4.97632e-14 -1.02442e-12 1.01442e-14 -48.094 26.3889 2.32526 32.9397 -37.0613 -37.1042 0.00178747 2.55642 -0.359255 2.32701e-09 9.83391e-10 -4.10339e-09 4.00774e-09 1.70142e-09 -7.10196e-09 2.32701e-09 9.83391e-10 -4.10338e-09 -7.73091 5.47488 -0.417314 2.32701e-09 9.83391e-10 -4.10339e-09 -2.90554 0.965183 -0.102902 2.327e-09 9.83392e-10 -4.10339e-09 -10.2786 0.731801 -0.0259123 2.32701e-09 9.83394e-10 -4.1034e-09 -2.22167 -0.733487 0.20892 -2.03217e-16 0.0 -3.88251e-19 -4.72279 -11.2414 4.0526 -0.00683227 12.5888 0.217064 -1.25005 -9.36884 -4.96172 2.03217e-16 0.0 3.88251e-19 4.75967 -4.42284 -6.14087 -0.00502861 0.680888 -0.0707528 2.09424 -2.03661 11.4986
65.394 84.7112 23.9125 79.5357 -86.2513 -68.7482 -4.72113 -7.88102 1.21589 4.93928 2.82133 0.436434 -13.9529 5.57344 2.79405 28.7055 -9.18629 10.4286 -0.0 0.0 0.0 -0.0 0.0 0.0 -7.00043e-14 -1.5321e-12 1.75657e-14 76.4642 11.3146 -10.7335 -31.018 -44.6659 66.4354 -0.035529 -6.07513 -0.85624 -5.7969e-10 -2.58824e-09 5.79473e-09 -1.0321e-09 -4.46971e-09 1.00115e-08 -5.79685e-10 -2.58824e-09 5.79472e-09 7.73091 5.47488 0.417314 -5.79691e-10 -2.58824e-09 5.79473e-09 2.90554 0.965183 0.102902 -5.79685e-10 -2.58824e-09 5.79473e-09 10.2786 0.731801 0.0259123 -5.79692e-10 -2.58824e-09 5.79474e-09 2.22167 -0.733487 -0.20892 -7.01353e-14 -1.5321e-12 1.70621e-14 -71.0397 38.4458 3.8748 30.6645 -41.6421 -63.487 0.0133778 3.73321 -0.525232 3.37977e-09 1.42302e-09 -5.90935e-09 5.82097e-09 2.46201e-09 -1.02275e-08 3.37977e-09 1.42302e-09 -5.90934e-09 -7.73091 5.47488 -0.417314 3.37977e-09 1.42302e-09 -5.90934e-09 -2.90554 0.965183 -0.102902 3.37977e-09 1.42302e-09 -5.90935e-09 -10.2786 0.731801 -0.0259123 3.37977e-09 1.42302e-09 -5.90936e-09 -2.22167 -0.733487 0.20892 -2.03217e-16 0.0 -3.88251e-19 -7.91308 -12.4016 6.06176 -0.0141503 13.7338 0.22995 -2.05684 -12.9442 -7.33675 2.03217e-16 0.0 3.88251e-19 6.02723 -5.53134 -8.97409 -0.00691604 1.94712 -0.136469 3.66323 -4.71349 16.8335
